# xmcd
#
# Track frame offsets:
#	150
#	23602
#	47585
#	70077
#	89501
#	111515
#	127510
#	141256
#	162851
#
# Disc length: 2327 seconds
#
# Revision: 1
# Processed by: cddbd v1.5.2PL0 Copyright (c) Steve Scherf et al.
# Submitted via: audiograbber 1.83.01
#
DISCID=6f091509
DTITLE=Billy Ray Cyrus - The SnakeDoctor Circus
DYEAR=2019
DGENRE=Country
TTITLE0=Guns, Gold and Guitars
TTITLE1=The Reckoning
TTITLE2=Barely Enough
TTITLE3=Goddess of Democracy
TTITLE4=I Think Your Time's Come (feat. Don Von Tress)
TTITLE5=The Blood of the Devil
TTITLE6=Angel in My Pocket
TTITLE7=Take it Easy Greazy (feat. Don Von Tress)
TTITLE8=I've Been Around
EXTD=
EXTT0=
EXTT1=
EXTT2=
EXTT3=
EXTT4=
EXTT5=
EXTT6=
EXTT7=
EXTT8=
PLAYORDER=
